<svg xmlns="http://www.w3.org/2000/svg" version="1.1" xmlns:xlink="http://www.w3.org/1999/xlink" viewBox="0 0 200 200"><rect width="200" height="200" fill="url('#gradient')"></rect><defs><linearGradient id="gradient" gradientTransform="rotate(26 0.5 0.5)"><stop offset="0%" stop-color="#0bc7e7"></stop><stop offset="100%" stop-color="#224b45"></stop></linearGradient></defs><g><g fill="#ffffff" transform="matrix(2.166176989070396,0,0,2.166176989070396,7.67546724187374,111.7406012447338)" stroke="#55878c" stroke-width="0"><path d="M10.03-8.30L10.03-5.66L4.50-5.66L4.50 0L1.07 0L1.07-14.22L10.59-14.22L10.59-11.57L4.50-11.57L4.50-8.30L10.03-8.30ZM15.33-10.57L15.33 0L12.03 0L12.03-10.57L15.33-10.57ZM11.84-13.29L11.84-13.29Q11.84-13.99 12.34-14.44Q12.85-14.89 13.66-14.89Q14.47-14.89 14.98-14.44Q15.49-13.99 15.49-13.29Q15.49-12.59 14.98-12.14Q14.47-11.69 13.66-11.69Q12.85-11.69 12.34-12.14Q11.84-12.59 11.84-13.29ZM20.83-15L20.83 0L17.53 0L17.53-15L20.83-15ZM27.97 0.20L27.97 0.20Q25.54 0.20 24.03-1.25Q22.53-2.71 22.53-5.03L22.53-5.03L22.53-5.30Q22.53-6.92 23.13-8.16Q23.73-9.40 24.88-10.08Q26.04-10.76 27.62-10.76L27.62-10.76Q29.84-10.76 31.13-9.38Q32.42-8.00 32.42-5.53L32.42-5.53L32.42-4.25L25.88-4.25Q26.05-3.36 26.65-2.85Q27.25-2.34 28.19-2.34L28.19-2.34Q29.76-2.34 30.63-3.44L30.63-3.44L32.14-1.66Q31.52-0.81 30.40-0.31Q29.27 0.20 27.97 0.20ZM27.60-8.22L27.60-8.22Q26.15-8.22 25.88-6.31L25.88-6.31L29.20-6.31L29.20-6.56Q29.22-7.35 28.80-7.79Q28.38-8.22 27.60-8.22ZM42.85-8.30L42.85-5.66L37.32-5.66L37.32 0L33.90 0L33.90-14.22L43.41-14.22L43.41-11.57L37.32-11.57L37.32-8.30L42.85-8.30ZM44.07-4.82L44.06-5.38Q44.06-6.96 44.68-8.20Q45.29-9.43 46.45-10.10Q47.60-10.76 49.15-10.76L49.15-10.76Q51.52-10.76 52.89-9.29Q54.26-7.82 54.26-5.29L54.26-5.29L54.26-5.18Q54.26-2.71 52.89-1.25Q51.51 0.20 49.17 0.20L49.17 0.20Q46.91 0.20 45.55-1.16Q44.18-2.51 44.07-4.82L44.07-4.82ZM47.36-5.77L47.35-5.18Q47.35-3.71 47.81-3.03Q48.27-2.34 49.17-2.34L49.17-2.34Q50.93-2.34 50.97-5.05L50.97-5.05L50.97-5.38Q50.97-8.22 49.15-8.22L49.15-8.22Q47.50-8.22 47.36-5.77L47.36-5.77ZM62.16-10.64L62.10-7.59L61.02-7.67Q59.46-7.67 59.02-6.69L59.02-6.69L59.02 0L55.73 0L55.73-10.57L58.82-10.57L58.93-9.21Q59.76-10.76 61.24-10.76L61.24-10.76Q61.77-10.76 62.16-10.64L62.16-10.64ZM62.71-5.24L62.71-5.36Q62.71-6.96 63.24-8.19Q63.77-9.42 64.76-10.09Q65.74-10.76 67.05-10.76L67.05-10.76Q68.70-10.76 69.63-9.65L69.63-9.65L69.75-10.57L72.73-10.57L72.73-0.40Q72.73 1.00 72.08 2.03Q71.44 3.06 70.21 3.61Q68.97 4.16 67.35 4.16L67.35 4.16Q66.19 4.16 65.10 3.72Q64.01 3.28 63.44 2.58L63.44 2.58L64.81 0.64Q65.73 1.73 67.24 1.73L67.24 1.73Q69.42 1.73 69.42-0.52L69.42-0.52L69.42-0.85Q68.48 0.20 67.03 0.20L67.03 0.20Q65.10 0.20 63.91-1.28Q62.71-2.76 62.71-5.24L62.71-5.24ZM66.02-5.16L66.02-5.16Q66.02-3.86 66.50-3.10Q66.99-2.34 67.87-2.34L67.87-2.34Q68.94-2.34 69.42-3.06L69.42-3.06L69.42-7.50Q68.95-8.22 67.89-8.22L67.89-8.22Q67.01-8.22 66.51-7.44Q66.02-6.65 66.02-5.16ZM79.72 0.20L79.72 0.20Q77.29 0.20 75.78-1.25Q74.28-2.71 74.28-5.03L74.28-5.03L74.28-5.30Q74.28-6.92 74.88-8.16Q75.48-9.40 76.63-10.08Q77.78-10.76 79.37-10.76L79.37-10.76Q81.59-10.76 82.88-9.38Q84.17-8.00 84.17-5.53L84.17-5.53L84.17-4.25L77.63-4.25Q77.80-3.36 78.40-2.85Q78.99-2.34 79.94-2.34L79.94-2.34Q81.50-2.34 82.38-3.44L82.38-3.44L83.89-1.66Q83.27-0.81 82.14-0.31Q81.02 0.20 79.72 0.20ZM79.35-8.22L79.35-8.22Q77.90-8.22 77.63-6.31L77.63-6.31L80.95-6.31L80.95-6.56Q80.97-7.35 80.55-7.79Q80.13-8.22 79.35-8.22Z"></path></g></g></svg>